<svg width="24" height="25" viewBox="0 0 24 25" fill="none" xmlns="http://www.w3.org/2000/svg">
<g clip-path="url(#clip0_302_976)">
<path d="M22 4.51001C21 5.00001 20.02 5.19901 19 5.50001C17.879 4.23501 16.217 4.16501 14.62 4.76301C13.023 5.36101 11.977 6.82301 12 8.50001V9.50001C8.755 9.58301 5.865 8.10501 4 5.50001C4 5.50001 -0.182 12.933 8 16.5C6.128 17.747 4.261 18.588 2 18.5C5.308 20.303 8.913 20.923 12.034 20.017C15.614 18.977 18.556 16.294 19.685 12.275C20.0218 11.0527 20.189 9.78987 20.182 8.52201C20.18 8.27301 21.692 5.75001 22 4.50901V4.51001Z" stroke="white" stroke-width="1.5" stroke-linecap="round" stroke-linejoin="round"/>
</g>
<defs>
<clipPath id="clip0_302_976">
<rect width="24" height="24" fill="white" transform="translate(0 0.5)"/>
</clipPath>
</defs>
</svg>
