<svg width="254" height="60" viewBox="0 0 254 60" fill="none" xmlns="http://www.w3.org/2000/svg">
<path d="M14.6577 18.8461V29.6625C14.6577 30.4538 14.0178 31.1006 13.2265 31.1006H13.0201C12.2288 31.1006 11.582 30.4545 11.582 29.6625V18.8461C11.582 18.0411 12.2151 17.4081 13.0201 17.4081H13.2265C14.0315 17.4081 14.6577 18.0411 14.6577 18.8461Z" fill="#39E991"/>
<path d="M20.5143 18.3094V35.1257C20.5143 35.9032 19.8537 36.5569 19.0762 36.5569H18.8491C18.0579 36.5569 17.418 35.9163 17.418 35.1257V18.3094C17.418 17.5044 18.0441 16.8713 18.8491 16.8713H19.0762C19.8675 16.8713 20.5143 17.5181 20.5143 18.3094Z" fill="#39E991"/>
<path d="M26.3424 17.7728V39.206C26.3424 39.9973 25.6956 40.6372 24.9112 40.6372H24.6842C23.8929 40.6372 23.2461 39.9973 23.2461 39.206V17.7728C23.2461 16.9815 23.8929 16.3347 24.6842 16.3347H24.9112C25.6956 16.3347 26.3424 16.9815 26.3424 17.7728Z" fill="#39E991"/>
<path d="M51.3119 43.3412V43.9818C51.3119 45.9428 49.7162 47.5323 47.7546 47.5323C38.9405 47.5323 36.9175 47.5322 36.3464 47.6072V47.5866C31.3236 48.4673 27.5599 52.7615 27.1546 58.0521C27.0651 58.2317 27.0583 58.4443 27.1408 58.6307C27.1408 58.6376 27.1408 58.6376 27.1408 58.6445V58.8509C26.6523 59.2645 23.7349 60 18.6639 60C13.641 60 10.7305 59.2775 10.2075 58.8654C10.1938 58.0122 10.0768 56.2507 9.81533 55.4319C9.72588 55.1773 9.62955 54.9572 9.53322 54.737C9.26488 54.0964 8.89332 53.4634 8.44608 52.9067C8.41856 52.8723 8.39104 52.8448 8.36351 52.8173C8.33599 52.7898 8.31535 52.7622 8.29471 52.7416C7.99884 52.4044 7.73049 52.1292 7.48967 51.909C7.15252 51.2416 7.17316 50.7256 7.20756 49.5428C7.22132 49.1162 7.23509 48.6276 7.23509 48.0359V28.9125C7.23509 26.4768 8.10893 24.5158 9.67084 23.3736V29.635C9.67084 31.4859 11.1708 32.9859 13.0148 32.9859H13.2419C14.1157 32.9859 14.907 32.6487 15.5056 32.1051V35.0989C15.5056 36.9429 17.0056 38.4422 18.8496 38.4422H19.0767C19.9505 38.4422 20.7556 38.1058 21.3542 37.5409V39.1784C21.3542 41.0225 22.8542 42.5224 24.6982 42.5224H24.9252C26.7693 42.5224 28.2692 41.0218 28.2692 39.1784V21.6878H28.2417C28.3243 20.9172 28.3174 18.736 28.3036 11.7866C28.2899 6.86001 28.2692 1.94722 28.2692 1.94722C28.2692 0.873843 29.1431 0 30.2234 0H30.7394C31.8403 0 32.7066 0.860081 32.7066 1.94722C32.6447 35.1877 32.6997 35.4767 32.721 35.573C33.0926 37.3138 34.3105 38.7663 35.9893 39.4743C36.2783 39.5775 36.5948 39.7014 36.9389 39.7564C36.9733 39.764 37.0077 39.764 37.0421 39.764L47.7546 39.7839C49.7156 39.7839 51.3119 41.3803 51.3119 43.3412Z" fill="#39E991"/>
<path d="M66.9158 33.7726H82.0058V36.3795H64.3086V23.7134H66.9154L66.9158 33.7726ZM103.436 26.3689L88.3461 26.3689V28.7965L98.4107 28.834L98.4011 31.4409L88.346 31.4034V33.8221H103.436V36.4289H85.7388V23.7628H103.436L103.436 26.3689ZM124.632 33.7726L124.671 36.3536L123.38 36.3729C123.18 36.376 122.953 36.3795 122.706 36.3795C120.919 36.3795 118.054 36.202 116.241 34.4163C115.38 33.5682 114.86 32.474 114.685 31.1558C113.736 31.2939 112.693 31.369 111.551 31.369H109.729V36.3493H107.147V23.8075H109.729V28.7879H111.551C116.834 28.7879 119.599 26.9833 119.599 25.2005V23.9099H122.18V25.2004C122.18 27.3222 120.61 29.4569 117.218 30.5737C117.286 31.4348 117.561 32.0936 118.053 32.5779C119.346 33.8524 122.045 33.8119 123.342 33.7925L124.632 33.7726ZM131.496 26.4282C131.254 26.5621 131.007 26.7869 131.007 27.4382C131.007 27.9459 131.171 28.2235 131.592 28.4277C132.018 28.6342 132.494 28.6493 132.518 28.6498L141.993 28.6869C143.639 28.6869 146.096 29.7038 146.096 32.5053C146.096 35.3067 143.813 36.3236 142.278 36.3236H128.399V33.7168H142.266C142.38 33.7129 142.719 33.67 142.999 33.5152C143.241 33.3812 143.489 33.1564 143.489 32.5052C143.489 31.9975 143.325 31.7199 142.903 31.5157C142.478 31.3098 142.004 31.2943 141.977 31.2935L132.508 31.2514V31.2565C130.856 31.2565 128.399 30.2396 128.399 27.4381C128.399 24.6366 130.682 23.6198 132.217 23.6198H146.096V26.2266H132.23C132.116 26.2305 131.776 26.2734 131.496 26.4282ZM152.389 36.4438H149.808V23.9021H152.389V36.4438ZM173.6 33.7726L173.638 36.3536L172.348 36.3729C172.148 36.376 171.921 36.3795 171.674 36.3795C169.887 36.3795 167.021 36.202 165.209 34.4163C164.348 33.5682 163.827 32.474 163.653 31.1558C162.704 31.2939 161.66 31.369 160.518 31.369H158.696V36.3493H156.115V23.8075H158.696V28.7879H160.518C165.802 28.7879 168.566 26.9833 168.566 25.2005V23.9099H171.147V25.2004C171.147 27.3222 169.578 29.4569 166.185 30.5737C166.254 31.4348 166.529 32.0936 167.02 32.5779C168.314 33.8524 171.012 33.8119 172.309 33.7925L173.6 33.7726ZM186.435 23.1041L196.625 36.6396H193.348L190.499 32.8672H182.371L179.563 36.6396H176.324L186.435 23.1041ZM184.326 30.2601H188.544L186.435 27.4484L184.326 30.2601ZM201.915 35.9625L199.309 35.9625V33.3254H201.915L201.915 35.9625ZM223.335 23.6327L223.381 29.9618C223.4 31.3622 222.835 32.7218 221.79 33.7904C220.681 34.9233 218.524 36.2799 214.542 36.3092C214.504 36.3095 214.465 36.3096 214.427 36.3096C211.412 36.3096 208.895 35.4438 207.328 33.8657C206.251 32.7808 205.668 31.3986 205.685 29.9722L205.638 23.6522L208.245 23.6329L208.292 29.9805L208.291 29.9947C208.281 30.7301 208.588 31.4334 209.179 32.0289C210.267 33.1252 212.164 33.7183 214.524 33.7022C216.93 33.6845 218.849 33.0685 219.927 31.9672C220.492 31.3893 220.785 30.7073 220.775 29.9946V29.9853L220.728 23.6521L223.335 23.6327ZM244.809 23.6371V26.2957L232.18 33.6968H244.809V36.3036H227.112V33.6451L239.742 26.2437H227.112V23.637L244.809 23.6371Z" fill="white"/>
</svg>
