<svg width="24" height="24" viewBox="0 0 24 24" fill="none" xmlns="http://www.w3.org/2000/svg">
<path d="M11.1865 2.18628C16.1545 2.18628 20.1865 6.21828 20.1865 11.1863C20.1865 16.1543 16.1545 20.1863 11.1865 20.1863C6.21852 20.1863 2.18652 16.1543 2.18652 11.1863C2.18652 6.21828 6.21852 2.18628 11.1865 2.18628ZM11.1865 18.1863C15.054 18.1863 18.1865 15.0538 18.1865 11.1863C18.1865 7.31878 15.054 4.18628 11.1865 4.18628C7.31902 4.18628 4.18652 7.31878 4.18652 11.1863C4.18652 15.0538 7.31902 18.1863 11.1865 18.1863ZM19.6718 18.2574L22.5002 21.0858L21.086 22.5L18.2576 19.6716L19.6718 18.2574Z" fill="#AAAAAA"/>
</svg>
