<svg width="24" height="25" viewBox="0 0 24 25" fill="none" xmlns="http://www.w3.org/2000/svg">
<g clip-path="url(#clip0_155_1997)">
<path d="M23.625 12.25C23.625 5.82812 18.4219 0.625 12 0.625C5.57812 0.625 0.375 5.82812 0.375 12.25C0.375 18.0522 4.62609 22.8616 10.1836 23.7344V15.6105H7.23047V12.25H10.1836V9.68875C10.1836 6.77547 11.918 5.16625 14.5744 5.16625C15.8466 5.16625 17.1769 5.39313 17.1769 5.39313V8.2525H15.7106C14.2669 8.2525 13.8164 9.14875 13.8164 10.068V12.25H17.0405L16.5248 15.6105H13.8164V23.7344C19.3739 22.8616 23.625 18.0522 23.625 12.25Z" fill="#415B98"/>
</g>
<defs>
<clipPath id="clip0_155_1997">
<rect width="24" height="24" fill="white" transform="translate(0 0.25)"/>
</clipPath>
</defs>
</svg>
