<svg width="24" height="25" viewBox="0 0 24 25" fill="none" xmlns="http://www.w3.org/2000/svg">
<g clip-path="url(#clip0_155_1995)">
<path d="M12.375 0.625C5.95467 0.625 0.75 5.82967 0.75 12.25C0.75 18.6703 5.95467 23.875 12.375 23.875C18.7953 23.875 24 18.6703 24 12.25C24 5.82967 18.7953 0.625 12.375 0.625ZM17.7634 8.53094C17.5884 10.3691 16.8315 14.8299 16.4462 16.8888C16.2832 17.7599 15.9623 18.052 15.6517 18.0805C14.9767 18.1427 14.464 17.6344 13.8102 17.2058C12.787 16.5351 12.209 16.1176 11.2158 15.4631C10.0681 14.7068 10.8121 14.2913 11.4662 13.6116C11.6374 13.4338 14.6119 10.7283 14.6694 10.4829C14.6766 10.4522 14.6835 10.3375 14.6153 10.2774C14.5472 10.2172 14.4471 10.2376 14.3746 10.2539C14.272 10.2772 12.6375 11.3576 9.47114 13.495C9.00723 13.8135 8.58702 13.9687 8.21048 13.9606C7.79541 13.9517 6.99698 13.726 6.40341 13.533C5.67539 13.2963 5.09677 13.1712 5.14716 12.7693C5.17341 12.56 5.46169 12.3459 6.012 12.1271C9.40094 10.6506 11.6608 9.6772 12.7914 9.20683C16.0198 7.864 16.6906 7.63075 17.1279 7.62297C17.2241 7.62137 17.4391 7.64519 17.5784 7.7582C17.671 7.83871 17.7301 7.95106 17.7438 8.07302C17.7674 8.22445 17.774 8.37805 17.7634 8.53094Z" fill="#009ACC"/>
</g>
<defs>
<clipPath id="clip0_155_1995">
<rect width="23.25" height="24" fill="white" transform="translate(0.75 0.25)"/>
</clipPath>
</defs>
</svg>
