<svg width="21" height="25" viewBox="0 0 21 25" fill="none" xmlns="http://www.w3.org/2000/svg">
<g clip-path="url(#clip0_155_1999)">
<path d="M10.5043 6.85928C7.52305 6.85928 5.11836 9.26397 5.11836 12.2452C5.11836 15.2265 7.52305 17.6312 10.5043 17.6312C13.4855 17.6312 15.8902 15.2265 15.8902 12.2452C15.8902 9.26397 13.4855 6.85928 10.5043 6.85928ZM10.5043 15.7468C8.57773 15.7468 7.00273 14.1765 7.00273 12.2452C7.00273 10.314 8.57305 8.74365 10.5043 8.74365C12.4355 8.74365 14.0059 10.314 14.0059 12.2452C14.0059 14.1765 12.4309 15.7468 10.5043 15.7468ZM17.3668 6.63897C17.3668 7.3374 16.8043 7.89522 16.1105 7.89522C15.4121 7.89522 14.8543 7.33272 14.8543 6.63897C14.8543 5.94522 15.4168 5.38271 16.1105 5.38271C16.8043 5.38271 17.3668 5.94522 17.3668 6.63897ZM20.934 7.91397C20.8543 6.23115 20.4699 4.74053 19.2371 3.5124C18.009 2.28428 16.5184 1.8999 14.8355 1.81553C13.1012 1.71709 7.90273 1.71709 6.16836 1.81553C4.49023 1.89521 2.99961 2.27959 1.7668 3.50771C0.533984 4.73584 0.154297 6.22646 0.0699219 7.90928C-0.0285156 9.64365 -0.0285156 14.8421 0.0699219 16.5765C0.149609 18.2593 0.533984 19.7499 1.7668 20.978C2.99961 22.2062 4.48555 22.5905 6.16836 22.6749C7.90273 22.7733 13.1012 22.7733 14.8355 22.6749C16.5184 22.5952 18.009 22.2108 19.2371 20.978C20.4652 19.7499 20.8496 18.2593 20.934 16.5765C21.0324 14.8421 21.0324 9.64834 20.934 7.91397ZM18.6934 18.4374C18.3277 19.3562 17.6199 20.064 16.6965 20.4343C15.3137 20.9827 12.0324 20.8562 10.5043 20.8562C8.97617 20.8562 5.69023 20.978 4.31211 20.4343C3.39336 20.0687 2.68555 19.3608 2.31523 18.4374C1.7668 17.0546 1.89336 13.7733 1.89336 12.2452C1.89336 10.7171 1.77148 7.43115 2.31523 6.05303C2.68086 5.13428 3.38867 4.42646 4.31211 4.05615C5.69492 3.50771 8.97617 3.63428 10.5043 3.63428C12.0324 3.63428 15.3184 3.5124 16.6965 4.05615C17.6152 4.42178 18.323 5.12959 18.6934 6.05303C19.2418 7.43584 19.1152 10.7171 19.1152 12.2452C19.1152 13.7733 19.2418 17.0593 18.6934 18.4374Z" fill="#DE11CF"/>
</g>
<defs>
<clipPath id="clip0_155_1999">
<rect width="21" height="24" fill="white" transform="translate(0 0.25)"/>
</clipPath>
</defs>
</svg>
