<svg width="24" height="25" viewBox="0 0 24 25" fill="none" xmlns="http://www.w3.org/2000/svg">
<path d="M21.533 7.36175C21.5482 7.57494 21.5482 7.78817 21.5482 8.00136C21.5482 14.5039 16.599 21.9963 7.5533 21.9963C4.76648 21.9963 2.17767 21.1891 0 19.7882C0.395953 19.8338 0.776625 19.8491 1.18781 19.8491C3.48727 19.8491 5.60405 19.0724 7.29441 17.7476C5.13197 17.7019 3.31978 16.2856 2.69541 14.3364C3 14.382 3.30455 14.4125 3.62438 14.4125C4.06598 14.4125 4.50764 14.3516 4.91878 14.245C2.66498 13.7881 0.974578 11.8085 0.974578 9.41759V9.3567C1.62938 9.72219 2.39086 9.95061 3.19791 9.98103C1.87303 9.09777 1.00505 7.59017 1.00505 5.88458C1.00505 4.97089 1.24866 4.13333 1.67508 3.40236C4.09641 6.38713 7.73602 8.33633 11.8172 8.54956C11.7411 8.18408 11.6954 7.80341 11.6954 7.42269C11.6954 4.712 13.8883 2.50391 16.6141 2.50391C18.0304 2.50391 19.3095 3.09781 20.208 4.0572C21.3197 3.84402 22.3857 3.43283 23.3299 2.86939C22.9643 4.01155 22.1877 4.97094 21.1674 5.58003C22.1573 5.47348 23.1167 5.19931 23.9999 4.81864C23.33 5.79322 22.4924 6.6612 21.533 7.36175Z" fill="#00ACE2"/>
</svg>
