<svg width="469" height="141" viewBox="0 0 469 141" fill="none" xmlns="http://www.w3.org/2000/svg">
<path opacity="0.5" d="M466.986 81.446V81.5043L466.993 81.5622C468.317 92.8776 463.483 102.146 453.114 109.765C442.694 117.422 426.744 123.354 406.07 127.844C364.741 136.819 304.963 139.946 234 139.946C163.085 139.946 104.683 132.899 64.0429 121.531C43.7162 115.845 27.8924 109.095 17.1732 101.647C6.43409 94.1861 1 86.1617 1 77.946C1 73.9323 2.88484 69.8953 6.66786 65.8664C10.4543 61.834 16.0848 57.8751 23.4135 54.0524C38.0678 46.4085 59.3149 39.4094 85.5899 33.4359C138.124 21.4926 210.546 13.6955 289.996 12.946L290.212 10.9717C274.428 7.32209 263.25 4.58747 255.94 2.66515C268.717 5.06517 290.926 9.91744 316.303 16.3529C348.945 24.6304 386.757 35.5091 416.395 47.1193C431.22 52.9269 443.952 58.8993 452.961 64.7973C457.467 67.7471 460.999 70.6515 463.396 73.474C465.796 76.3011 466.986 78.9613 466.986 81.446Z" stroke="#AAAAAA" stroke-width="2"/>
</svg>
